<?xml version="1.0" encoding="utf-8"?>
<!-- Generator: Adobe Illustrator 22.1.0, SVG Export Plug-In . SVG Version: 6.00 Build 0)  -->
<svg version="1.1" id="Calque_1" xmlns="http://www.w3.org/2000/svg" xmlns:xlink="http://www.w3.org/1999/xlink" x="0px" y="0px"
	 viewBox="0 0 841.9 595.3" style="enable-background:new 0 0 841.9 595.3;" xml:space="preserve">
<style type="text/css">
	.st0{fill:#7274B4;}
	.st1{font-family:'BebasNeue';}
	.st2{font-size:72px;}
</style>
<text transform="matrix(1 0 0 1 306.1232 309.4852)" class="st0 st1 st2">Tr</text>
<text transform="matrix(1 0 0 1 441.7325 309.5103)" class="st0 st1 st2">ey</text>
<g>
	<path class="st0" d="M442.1,259h-7.9L424,280.9h-0.1v-8.2c-2.8,4.9-5.5,9.6-7.9,13.6v23.2h7.9V294l2.4-4.6l7.7,20.1h8.1l-11-27.9
		L442.1,259z"/>
	<polygon class="st0" points="423.8,259 423.5,259 423.8,259.4 	"/>
	<path class="st0" d="M401.8,308.2c-0.4,0.6-0.9,1-1.5,1.2c0.3,0,0.5,0,0.8,0c7.8,0,11.8-4.6,11.8-12.7v-5.6
		c-3.1,4.9-5.1,8.1-5.3,8.3L401.8,308.2z"/>
	<path class="st0" d="M396.6,308.2l-5.8-8.8c-0.1-0.1-0.6-0.9-1.5-2.3c0.1,6.4,2.8,10.6,8,11.8C397.1,308.8,396.8,308.5,396.6,308.2
		z"/>
	<path class="st0" d="M416.2,239.1l16.5,16.5c0.9-1.9,1.7-3.7,2.5-5.4H432c-0.8,0-1.5-0.7-1.5-1.5v-6.4h-6.4c-0.4,0-0.8-0.2-1.1-0.4
		l-5.4-5.4c-0.5-0.5-0.6-1.2-0.3-1.8c3.3-6.6,2-14.6-3.2-19.9c-3.3-3.3-7.6-5-12.2-5s-8.9,1.8-12.2,5c-3.3,3.3-5,7.6-5,12.2
		s1.8,8.9,5,12.2c5.3,5.3,13.2,6.5,19.9,3.2c0.6-0.3,1.3-0.2,1.8,0.3l18.6,18.6c0.5-0.9,0.9-1.8,1.3-2.7L414,241.3
		c-0.6-0.6-0.6-1.6,0-2.2C414.7,238.5,415.6,238.5,416.2,239.1z M401.7,230.5c-2.2,0-4-1.8-4-4s1.8-4,4-4s4,1.8,4,4
		S403.9,230.5,401.7,230.5z"/>
	<path class="st0" d="M375.3,274l-0.9-6h-0.1l-0.5,3.3c0.2,0.4,0.4,0.8,0.6,1.2C374.7,272.9,375,273.5,375.3,274z"/>
	<path class="st0" d="M399.2,309.6c0.4,0,0.8-0.1,1.1-0.2c-1.1,0-2.1-0.2-3-0.4C397.9,309.4,398.5,309.6,399.2,309.6z"/>
	<path class="st0" d="M424,272.4c1.6-2.9,3.1-5.7,4.5-8.4l-4.7-4.7v13.3C423.9,272.6,423.9,272.5,424,272.4z"/>
	<path class="st0" d="M423.5,259L410,245.5c-7.6,3.3-16.5,1.7-22.4-4.3c-3.8-3.8-5.9-8.9-5.9-14.3s2.1-10.5,5.9-14.3
		c7.9-7.9,20.8-7.9,28.7,0c3.9,3.9,5.9,9.1,6,14.3c0,2.7-0.6,5.5-1.7,8.1l4.2,4.2h7.3c0.8,0,1.5,0.7,1.5,1.5v6.4h3
		c3.2-8,4.7-14.3,4.7-19.2c0-23.2-18.8-42-42-42s-42,18.8-42,42c0,7.6,3.6,18.4,11.4,33.6l0.4-2.4h11.6l5.2,32.5
		c1.5,2.3,2.7,4.2,3.5,5.6c0-0.1,0-0.3,0-0.4v-26.2c0-8.1,4-12.7,11.8-12.7s11.8,4.6,11.8,12.7v4.9h-7.5V270c0-3.6-1.6-5-4.1-5
		s-4.1,1.4-4.1,5v27.2c0,3.6,1.6,4.9,4.1,4.9s4.1-1.3,4.1-4.9V290h7.5v1.1c0.9-1.5,1.9-3.1,3-4.9V259H423.5z"/>
	<path class="st0" d="M378.2,293.5h-7.6l3.3-22.2c-1.9-3.5-3.7-6.7-5.2-9.8l-7.7,48h7.3l1.4-9.1h9.7l1.4,9.1h8l-2.9-17.9
		c-2.9-4.6-6.6-10.8-10.4-17.6L378.2,293.5z"/>
</g>
</svg>
